<?xml version="1.0" encoding="UTF-8"?>
<svg width="791px" height="791px" viewBox="0 0 791 791" version="1.1" xmlns="http://www.w3.org/2000/svg" xmlns:xlink="http://www.w3.org/1999/xlink">
    <!-- Generator: Sketch 57.1 (83088) - https://sketch.com -->
    <title>Tea</title>
    <desc>Created with Sketch.</desc>
    <defs>
        <radialGradient cx="50%" cy="0%" fx="50%" fy="0%" r="100%" gradientTransform="translate(0.500000,0.000000),rotate(90.000000),scale(1.000000,1.196579),translate(-0.500000,-0.000000)" id="radialGradient-1">
            <stop stop-color="#63CEFA" offset="0%"></stop>
            <stop stop-color="#FFAFC7" offset="37.1384079%"></stop>
            <stop stop-color="#FFFFFF" offset="58.4037162%"></stop>
            <stop stop-color="#FAC4D4" offset="94.5919552%"></stop>
            <stop stop-color="#60CFF1" offset="100%"></stop>
        </radialGradient>
    </defs>
    <g id="Page-1" stroke="none" stroke-width="1" fill="none" fill-rule="evenodd">
        <circle id="Oval" stroke="url(#radialGradient-1)" stroke-width="25" fill="#FFFFFF" cx="395.5" cy="395.5" r="382.5"></circle>
        <g id="coffee-cup" transform="translate(130.000000, 172.000000)" fill="#000000" fill-rule="nonzero">
            <path d="M394.655,170.654 L95.988,170.654 C78.345,170.654 63.988,185.011 63.988,202.654 L63.988,223.987 C63.988,300.104 106.036,369.139 173.705,404.147 C178.932,406.835 185.374,404.808 188.084,399.56 C190.772,394.333 188.745,387.891 183.497,385.181 C122.953,353.864 85.321,292.104 85.321,223.986 L85.321,202.653 C85.321,196.765 90.1,191.986 95.988,191.986 L394.655,191.986 C400.543,191.986 405.322,196.765 405.322,202.653 L405.322,223.986 C405.322,292.103 367.69,353.863 307.125,385.159 C301.877,387.868 299.85,394.311 302.538,399.538 C304.437,403.207 308.17,405.319 312.031,405.319 C313.695,405.319 315.359,404.935 316.916,404.124 C384.607,369.137 426.655,300.124 426.655,223.985 L426.655,202.652 C426.655,185.011 412.297,170.654 394.655,170.654 Z" id="Path"></path>
            <path d="M489.865,390.558 C488.201,386.569 484.318,383.966 480.009,383.966 L10.676,383.966 C6.367,383.966 2.484,386.569 0.82,390.558 C-0.844,394.547 0.073,399.134 3.124,402.185 L27.039,426.121 C41.162,440.222 59.892,447.988 79.839,447.988 L410.804,447.988 C430.751,447.988 449.503,440.223 463.647,426.121 L487.562,402.185 C490.612,399.134 491.529,394.547 489.865,390.558 Z M448.543,411.038 C438.474,421.107 425.055,426.654 410.826,426.654 L79.839,426.654 C65.61,426.654 52.191,421.107 42.122,411.038 L36.405,405.321 L454.26,405.321 L448.543,411.038 Z" id="Shape"></path>
            <path d="M491.359,221.022 C462.623,202.547 416.714,222.601 411.572,224.926 C406.217,227.379 403.828,233.694 406.281,239.07 C408.734,244.446 415.028,246.814 420.425,244.361 C430.708,239.689 463.689,228.617 479.817,239.006 C487.092,243.678 490.654,252.745 490.654,266.654 C490.654,309.363 404.51,335.177 371.251,341.534 L363.699,343.027 C357.918,344.158 354.163,349.768 355.294,355.55 C356.297,360.627 360.755,364.147 365.747,364.147 C366.43,364.147 367.112,364.083 367.816,363.934 L375.304,362.462 C380.893,361.395 511.987,335.689 511.987,266.654 C511.987,245.193 505.034,229.854 491.359,221.022 Z" id="Path"></path>
            <path d="M328.372,81.31 C345.716,59.635 345.716,25.694 328.372,4.019 C324.681,-0.589 318.004,-1.357 313.375,2.355 C308.767,6.046 308.02,12.744 311.711,17.352 C322.698,31.069 322.698,54.259 311.69,68.019 C294.325,89.694 294.325,123.635 311.69,145.31 C313.802,147.955 316.895,149.321 320.031,149.321 C322.356,149.321 324.724,148.553 326.687,146.974 C331.295,143.283 332.042,136.563 328.351,131.977 C317.343,118.259 317.343,95.07 328.372,81.31 Z" id="Path"></path>
            <path d="M264.287,81.31 C281.652,59.635 281.652,25.694 264.287,4.019 C260.618,-0.589 253.898,-1.336 249.29,2.355 C244.682,6.046 243.935,12.766 247.626,17.352 C258.634,31.069 258.634,54.259 247.605,68.019 C230.261,89.694 230.261,123.635 247.605,145.31 C249.717,147.955 252.81,149.321 255.946,149.321 C258.271,149.321 260.618,148.553 262.602,146.974 C267.21,143.283 267.957,136.585 264.266,131.977 C253.279,118.259 253.279,95.07 264.287,81.31 Z" id="Path"></path>
            <path d="M200.372,81.331 C217.716,59.656 217.716,25.715 200.372,4.04 C196.703,-0.568 190.004,-1.336 185.375,2.376 C180.788,6.045 180.042,12.765 183.711,17.352 C194.698,31.069 194.698,54.259 183.69,68.019 C166.325,89.694 166.325,123.635 183.69,145.31 C185.802,147.955 188.895,149.321 192.031,149.321 C194.356,149.321 196.724,148.553 198.687,146.996 C203.295,143.305 204.042,136.585 200.351,131.999 C189.343,118.259 189.343,95.091 200.372,81.331 Z" id="Path"></path>
        </g>
    </g>
</svg>